<svg xmlns="http://www.w3.org/2000/svg" width="66" height="66" viewBox="0 0 66 66">
  <g id="pencil-icon" transform="translate(-1.25 -2.006)">
    <rect id="Rectangle_55" data-name="Rectangle 55" width="66" height="66" transform="translate(1.25 2.006)" fill="#0075ff"/>
    <g id="Group_2050" data-name="Group 2050" transform="translate(22 23)">
      <path id="Path_703" data-name="Path 703" d="M21,22H3a.75.75,0,0,1,0-1.5H21A.75.75,0,0,1,21,22Z" fill="#fff"/>
      <path id="Path_704" data-name="Path 704" d="M19.02,3.48c-1.94-1.94-3.84-1.99-5.83,0L11.98,4.69a.417.417,0,0,0-.1.4,8.129,8.129,0,0,0,5.53,5.53.5.5,0,0,0,.12.02.4.4,0,0,0,.29-.12l1.2-1.21a4.133,4.133,0,0,0,1.47-2.89A4.117,4.117,0,0,0,19.02,3.48Z" fill="#fff"/>
      <path id="Path_705" data-name="Path 705" d="M15.61,11.53c-.29-.14-.57-.28-.84-.44-.22-.13-.43-.27-.64-.42a6.038,6.038,0,0,1-.56-.43,1.22,1.22,0,0,1-.17-.15,8.453,8.453,0,0,1-1.03-1.04,1.218,1.218,0,0,1-.15-.18,5.817,5.817,0,0,1-.42-.55,5.491,5.491,0,0,1-.39-.59c-.16-.27-.3-.54-.44-.82q-.032-.068-.062-.135a.521.521,0,0,0-.84-.173L4.34,12.33a1.2,1.2,0,0,0-.28.55l-.54,3.83a2.05,2.05,0,0,0,.51,1.75,1.991,1.991,0,0,0,1.4.54,2.186,2.186,0,0,0,.36-.03l3.84-.54a1.113,1.113,0,0,0,.55-.28L15.9,12.429a.526.526,0,0,0-.176-.849Z" fill="#fff"/>
    </g>
  </g>
</svg>
